<svg width="512" height="512" viewBox="0 0 512 512" xmlns="http://www.w3.org/2000/svg">
  <style>
    .a { fill: #5D1C13 }
    .b { fill: #703302 }
    .c { fill: #802217 }
    .d { fill: #A54002 }
    .e { fill: #8E5602 }
    .f { fill: #A9281B }
    .g { fill: #DE4A02 }
    .h { fill: #DE7702 }
    @media (prefers-color-scheme: light) {
      .a { fill: #AD4A36 }
      .b { fill: #BE7406 }
      .c { fill: #C9563F }
      .d { fill: #DF8907 }
      .e { fill: #D2A607 }
      .f { fill: #E16047 }
      .g { fill: #F79808 }
      .h { fill: #F7C308 }
    }
  </style>
  <path class="c" d="M91.2569 247.206C90.7602 246.48 89.067 249.969 85.8921 257.955C73.6248 288.485 70.5884 328.38 77.9973 360.613L79.8192 369.006L80.0937 369.07C80.4641 373.35 89.276 395.936 94.88 406.712C103.989 424.349 113.463 437.12 128.281 451.959C155.488 479.327 188.524 496.112 227.391 502.437C244.638 505.234 279.618 504.14 295.894 500.247C331.117 491.855 359.052 476.286 384.68 450.621C405.449 429.944 420.51 405.131 429.255 377.763C433.562 363.986 434.804 358.469 433.564 358.306C436.706 349.436 438 337.179 438 317.434C438 191.3 389.538 87.6694 304.396 32.0833C289.942 22.5959 272.088 13.1086 270.995 14.3249C270.266 13.4735 266.744 11.7706 263.343 10.4327L257.027 8L259.456 12.9869C268.808 31.1102 276.946 61.3967 279.011 85.2367C280.711 103.725 279.375 124.402 275.367 141.066C272.574 152.743 269.416 156.392 261.399 157.243C253.383 158.216 250.954 156.149 245.61 143.134C240.266 130.241 231.642 115.523 222.29 103.238C214.881 93.6294 195.569 74.0465 185.488 66.1404L178.929 61.0318L179.658 64.5592C181.48 72.9518 181.966 91.8049 180.63 99.8327C176.257 125.984 166.419 143.134 130.224 188.016C108.608 214.715 95.8906 234.074 91.2569 247.206Z" />
  <path class="a" d="M227.335 502.434C188.462 496.096 155.42 479.275 128.208 451.851C113.388 436.981 103.913 424.183 94.8017 406.51C88.7277 394.809 78.8879 369.213 80.1027 368.116C80.3457 367.873 84.7189 368.482 89.8211 369.457C94.9232 370.554 104.034 371.773 110.108 372.261C120.191 372.992 121.284 373.236 123.106 376.161C124.078 377.867 126.022 380.549 127.237 381.889C128.573 383.352 130.881 389.69 132.46 396.028C137.198 415.652 146.673 431.497 161.737 445.635C175.95 459.043 188.705 466.356 212.029 474.644C237.418 483.663 238.147 483.907 248.959 483.176C290.869 480.251 323.79 469.768 353.552 449.657C361.327 444.416 362.542 443.076 367.036 433.934C371.41 425.037 372.867 423.33 381.735 416.627C395.827 406.023 415.264 385.058 424.618 370.432C428.991 363.607 433 358.122 433.485 358C434.822 358 433.607 363.485 429.234 377.502C420.487 404.926 405.424 429.79 384.651 450.511C359.019 476.228 331.079 491.83 295.85 500.24C279.571 504.14 244.585 505.237 227.335 502.434Z" />
  <path class="b" d="M267 481.214C267 480.493 269.544 478.569 272.815 477.005C280.448 473.157 288.928 465.581 293.532 458.485C297.288 452.592 297.288 452.592 307.465 450.668C326.001 447.06 350.837 437.56 366.587 428.059C369.131 426.496 371.554 425.654 371.917 426.135C372.402 426.616 370.706 431.186 368.041 436.237C363.8 444.655 362.468 446.219 354.835 451.27C343.205 459.086 327.697 467.024 315.461 471.473C297.53 478.088 267 484.221 267 481.214Z" />
  <path class="b" d="M205.431 473.499C166.756 459.856 137.781 429.794 130.87 395.747C130.143 391.884 129.779 388.382 130.143 388.02C130.385 387.658 135.356 392.246 140.933 398.041C153.056 410.718 164.21 419.531 179.486 428.828L190.64 435.468L193.307 443.436C196.702 453.457 203.491 463.719 211.008 469.998C216.463 474.585 218.282 477 216.1 477C215.494 477 210.765 475.43 205.431 473.499Z" />
  <path class="c" d="M372.433 424.037C372.433 423.184 373.525 419.165 374.861 415.39C386.518 382.143 383.239 354.863 364.419 328.313C361.262 324.051 350.456 311.872 340.256 301.277C330.057 290.681 319.493 278.625 316.7 274.484C309.779 264.01 306.38 252.319 307.108 241.48C307.473 236.852 307.594 233.077 307.351 233.077C306.987 233.077 305.773 233.686 304.437 234.538C303.223 235.391 301.766 235.634 301.401 235.269C300.916 234.904 301.523 229.91 302.616 224.308C305.773 208.72 306.258 176.812 303.951 149.897C299.823 102.157 290.716 62.8202 275.296 26.6498C272.503 20.1951 270.682 14.4712 271.046 14.1058C272.139 12.888 289.988 22.3873 304.437 31.8866C389.553 87.5427 438 191.304 438 317.596C438 343.293 435.814 356.324 430.229 365.701C417.116 387.136 393.924 411.858 375.832 423.671C373.161 425.376 372.433 425.376 372.433 424.037Z" />
  <path class="c" d="M127.216 385.097C125.629 382.901 123.309 379.608 122.21 377.778C120.379 374.85 119.28 374.363 114.275 374.363C107.561 374.363 93.888 372.533 85.5866 370.581L79.8489 369.239L78.0177 360.823C70.5709 328.499 73.6229 288.49 85.9529 257.873C90.9581 245.309 92.301 243.846 91.0802 252.384C89.6152 262.264 89.9815 290.807 91.6906 300.566C95.353 321.058 103.654 343.746 114.519 363.141L120.135 373.143H125.629H131V381.071C131 385.463 130.878 389 130.634 389C130.39 389 128.925 387.17 127.216 385.097Z" />
  <path class="d" d="M297.135 452.849C297.135 452.485 298.227 449.093 299.684 445.458C306.361 427.769 302.355 392.754 291.065 370.339C286.938 361.979 278.561 350.833 272.37 345.138C266.543 339.807 252.218 329.993 251.368 330.841C251.125 331.084 251.732 334.476 252.946 338.232C256.588 350.954 255.496 374.338 251.125 375.791C247.241 377.003 244.934 375.064 241.292 367.795C239.35 363.918 234.737 357.618 231.095 353.74L224.418 346.713L224.297 352.287C224.297 360.647 221.262 367.674 213.978 377.003C194.676 401.719 189.577 413.108 190.548 428.98L191.155 437.825L187.392 435.523C164.569 421.347 155.829 414.805 143.325 402.446L129.85 389.119L129.364 381.122L129 373.126L139.562 372.278C162.141 370.703 185.692 363.797 209.001 351.802C217.134 347.683 223.932 343.927 224.297 343.563C224.661 343.078 228.303 340.292 232.43 337.263C263.508 314.364 289.608 276.441 298.834 240.336C299.684 237.185 300.534 234.641 300.898 234.883C301.141 235.126 303.205 233.914 305.39 232.339C307.575 230.764 309.639 229.795 309.882 230.037C310.124 230.279 309.882 232.581 309.275 235.247C306.482 247.242 309.639 260.933 317.894 273.412C320.686 277.531 331.247 289.526 341.445 300.067C351.642 310.608 362.446 322.724 365.603 326.964C384.541 353.619 387.818 379.547 376.407 414.926L373.129 424.982L365.117 429.707C355.163 435.644 337.803 443.277 326.513 446.67C315.344 449.941 297.135 453.818 297.135 452.849Z" />
  <path class="e" d="M227.512 482.046C222.846 480.332 217.689 478.127 215.847 476.903C209.093 472.494 198.902 460.86 195.095 453.145C190.92 444.572 188.71 436 190.798 436C191.412 436 195.464 437.592 199.761 439.551C223.705 450.328 258.823 455.961 285.591 453.39C292.713 452.777 298.729 452.41 298.975 452.655C299.221 452.9 297.624 455.839 295.414 459.268C288.047 470.657 273.558 480.944 260.91 483.638C250.228 485.965 236.844 485.23 227.512 482.046Z" />
  <path class="f" d="M116.991 369.499C112.889 362.818 104.325 345.326 100.706 335.973C90.9356 310.95 86.5931 276.33 90.3325 253.372C92.3831 240.496 105.411 219.239 130.742 187.778C166.688 142.955 176.459 125.827 180.801 99.7109C182.128 91.6937 181.646 72.8657 179.836 64.4842L179.113 60.9615L185.626 66.0633C195.638 73.9589 214.818 93.5158 222.176 103.112C231.464 115.381 240.028 130.079 245.336 142.955C250.643 155.952 253.056 158.017 261.017 157.045C268.978 156.195 272.115 152.551 274.889 140.89C278.87 124.248 280.196 103.598 278.508 85.1343C276.457 61.3259 268.375 31.0796 259.087 12.9803L256.675 8L262.947 10.4294C266.325 11.7656 269.823 13.4662 270.546 14.3165C274.648 18.8109 287.675 55.3738 293.465 78.3319C304.683 122.912 309.388 193.851 303.356 224.219C300.823 236.488 300.582 236.852 295.154 240.739C292.5 242.561 285.625 249.121 279.714 255.194C267.41 268.192 260.052 281.432 257.76 295.037C256.795 300.746 255.951 303.175 254.624 303.175C251.85 303.175 242.682 282.039 240.27 270.378C236.41 251.186 239.666 226.77 248.231 209.521C250.281 205.634 251.85 202.111 251.85 201.747C251.85 200.775 237.495 206.484 227.724 211.464C181.404 234.908 150.163 274.144 137.135 325.283C134.24 336.701 131.224 357.959 131.224 367.069V373.386L125.676 373.872C120.248 374.236 119.886 374.115 116.991 369.499Z" />
  <path class="g" d="M135.565 324.417C148.817 273.01 180.183 233.878 227.475 210.302C235.499 206.17 253.492 199 255.559 199C255.802 199 253.857 203.375 251.182 208.601C237.444 236.066 236.836 264.382 249.358 291.118C252.276 297.194 254.951 302.299 255.194 302.299C255.559 302.299 256.41 298.653 257.139 294.156C259.449 281.031 266.865 267.42 278.293 255.267C283.764 249.556 291.301 242.507 295.07 239.59L302 234.365L300.906 238.861C293.004 274.104 265.285 315.181 233.797 338.392C225.299 344.639 218.449 348.828 208.996 353.705C186.748 365.128 163.041 371.934 140.55 373.635L129 374C130.488 357.34 131.402 340.728 135.565 324.417Z" />
  <path class="h" d="M251.625 454.395C231.074 452.081 213.199 447.453 197.877 440.389L190.216 437.344L189 427.236C189 410.672 193.986 399.954 212.712 375.839C220.373 366.096 223.049 359.397 223.049 349.776L223.17 342.955L230.953 351.115C235.33 355.622 240.438 362.564 242.383 366.583C248.22 378.153 251.504 377.666 253.328 364.878C254.665 355.378 253.571 344.782 250.409 334.917C249.193 331.507 248.585 328.462 248.95 328.097C250.044 327.122 261.353 333.699 268.893 339.789C287.011 354.404 298.077 375.23 302.82 403.364C306.225 424.313 301.482 445.87 298.442 453.177C295.28 454.882 263.177 455.613 251.625 454.395Z" />
</svg>
